<svg xmlns="http://www.w3.org/2000/svg" width="120" height="120" viewBox="0 0 120 120">
  <title>Tanur</title>
  <path d="M 52.21,16.50 Q 60.00,12.00 67.79,16.50 L 93.77,31.50 Q 101.57,36.00 101.57,45.00 L 101.57,75.00 Q 101.57,84.00 93.77,88.50 L 67.79,103.50 Q 60.00,108.00 52.21,103.50 L 26.23,88.50 Q 18.43,84.00 18.43,75.00 L 18.43,45.00 Q 18.43,36.00 26.23,31.50 Z" fill="none" stroke="#FFFFFF" stroke-width="6"/>
  <path d="M37 37 H83 a3 3 0 0 1 3 3 V44 a3 3 0 0 1 -3 3 H67.5 V90 a3.5 3.5 0 0 1 -3.5 3.5 H56 a3.5 3.5 0 0 1 -3.5 -3.5 V47 H37 a3 3 0 0 1 -3 -3 V40 a3 3 0 0 1 3 -3 Z" fill="#FFFFFF"/>
</svg>
